<?xml version="1.0" standalone="no"?>
<!DOCTYPE svg PUBLIC "-//W3C//DTD SVG 20010904//EN"
 "http://www.w3.org/TR/2001/REC-SVG-20010904/DTD/svg10.dtd">
<svg version="1.0" xmlns="http://www.w3.org/2000/svg"
 width="16.000000pt" height="16.000000pt" viewBox="0 0 16.000000 16.000000"
 preserveAspectRatio="xMidYMid meet">
<metadata>
Created by potrace 1.11, written by Peter Selinger 2001-2013
</metadata>
<g transform="translate(0.000000,16.000000) scale(0.005797,-0.005797)"
fill="#000000" stroke="none">
<path d="M1358 2723 c6 -2 18 -2 25 0 6 3 1 5 -13 5 -14 0 -19 -2 -12 -5z"/>
<path d="M1354 2545 c-7 -17 -54 -21 -54 -5 0 6 -11 10 -25 10 -16 0 -25 -6
-25 -15 0 -8 -9 -15 -20 -15 -11 0 -20 7 -20 15 0 9 -9 15 -25 15 -14 0 -25
-5 -25 -11 0 -30 -99 -56 -115 -30 -3 5 -20 -4 -38 -20 -25 -23 -33 -26 -35
-14 -4 19 -7 19 -60 -2 -37 -14 -42 -18 -29 -28 13 -10 5 -16 -51 -39 -37 -16
-81 -30 -99 -33 -25 -4 -33 -11 -38 -34 -7 -29 -16 -33 -65 -29 -21 2 -22 0
-11 -14 12 -14 9 -21 -23 -51 -20 -19 -40 -34 -44 -34 -24 3 -52 -16 -52 -36
0 -27 -27 -60 -57 -69 -13 -4 -20 -12 -17 -21 9 -23 -35 -77 -57 -70 -17 6
-19 1 -19 -38 0 -31 -5 -47 -15 -51 -10 -3 -15 -19 -15 -48 0 -31 -3 -39 -11
-31 -21 21 -38 4 -29 -28 10 -35 -17 -122 -36 -115 -8 3 -18 -28 -30 -92 -22
-117 -25 -403 -5 -440 10 -18 10 -27 1 -38 -13 -15 -6 -49 8 -40 12 7 40 -55
48 -104 4 -22 11 -43 15 -46 5 -3 9 -13 9 -23 0 -10 6 -24 14 -30 7 -6 17 -39
20 -73 9 -72 22 -102 41 -94 17 6 45 -19 45 -40 0 -9 12 -35 26 -60 20 -35 32
-44 53 -44 28 0 54 -24 66 -59 3 -12 10 -19 15 -16 5 3 11 -4 15 -14 3 -11 12
-18 19 -15 12 5 76 -52 76 -67 0 -4 7 -15 16 -24 13 -12 19 -13 30 -4 12 10
20 7 42 -13 15 -14 64 -40 109 -58 45 -18 81 -37 80 -44 -1 -7 20 -13 53 -16
40 -4 55 -9 55 -20 0 -11 13 -16 45 -18 24 -2 50 -8 56 -13 20 -16 353 -9 387
8 17 9 53 13 94 12 56 -2 68 1 82 19 17 22 122 72 151 72 32 0 81 27 93 50 7
13 23 27 37 30 15 4 24 12 22 22 -3 19 27 33 42 18 14 -14 29 -13 55 8 45 33
61 52 55 65 -6 17 64 93 99 106 19 7 27 18 27 35 0 13 7 26 15 30 8 3 15 13
15 23 1 26 27 58 33 41 2 -7 8 1 12 17 9 38 11 44 35 80 11 17 23 37 26 45 22
52 42 89 46 84 3 -2 8 17 11 43 4 36 12 53 33 69 25 21 28 29 29 96 1 40 5 89
9 109 6 28 4 39 -7 45 -8 5 -17 25 -20 44 -2 19 -2 27 0 17 5 -21 28 -18 28 4
-1 56 -19 195 -26 200 -10 6 -39 109 -39 137 0 28 -34 102 -47 102 -7 0 -13 9
-13 19 0 10 -8 37 -18 60 -14 30 -21 38 -30 29 -8 -8 -14 -4 -22 18 -6 16 -19
38 -28 48 -13 14 -14 20 -4 23 6 3 12 15 12 29 0 21 -3 23 -29 18 -24 -5 -30
-2 -36 15 -4 12 -1 28 5 36 14 17 4 55 -16 55 -8 0 -14 -4 -14 -10 0 -23 -40
-8 -55 20 -9 17 -20 30 -25 30 -6 0 -10 7 -10 15 0 8 -6 12 -12 10 -7 -3 -25
6 -41 19 -23 19 -25 25 -12 30 26 10 5 28 -26 24 -20 -3 -26 -1 -19 6 6 6 4
16 -7 28 -17 19 -39 25 -28 8 7 -11 -22 -1 -70 24 -16 9 -37 16 -45 16 -12 1
-11 3 3 11 13 8 15 14 7 30 -13 22 -40 26 -40 4 0 -20 -49 -20 -56 0 -4 8 -1
21 5 29 6 7 8 16 4 19 -12 13 -54 7 -59 -8 -7 -17 -30 -20 -39 -5 -4 6 -2 16
4 23 7 9 5 16 -9 25 -11 7 -21 8 -25 2 -8 -12 -214 -5 -228 9 -13 13 -30 15
-22 2 12 -21 -18 -21 -56 -2 -47 25 -48 25 -55 6z m155 -197 c26 -7 56 -25 76
-45 l33 -34 42 45 c51 55 104 69 148 40 l27 -19 -35 -5 c-34 -5 -35 -6 -33
-48 1 -29 -2 -42 -12 -42 -17 0 -27 -27 -13 -36 6 -4 8 -21 4 -42 -6 -39 12
-61 52 -62 27 0 29 -16 3 -30 -27 -14 -61 -12 -95 5 -40 21 -44 20 -61 -22 -9
-21 -23 -45 -31 -54 -22 -24 -14 -55 13 -51 12 2 24 -2 28 -8 3 -5 14 -10 24
-10 45 0 68 -72 44 -138 -17 -46 -36 -51 -41 -11 -6 52 -14 54 -31 9 -11 -31
-23 -46 -37 -48 -23 -3 -33 26 -35 97 0 32 -1 33 -9 14 -5 -13 -13 -23 -19
-23 -5 0 -12 -10 -15 -22 -6 -23 -7 -23 -31 7 -30 36 -32 55 -5 62 15 4 18 9
10 18 -6 7 -40 12 -89 13 -61 1 -87 6 -112 21 -47 29 -51 27 -29 -21 23 -50
25 -85 9 -139 -15 -49 -51 -82 -117 -108 -66 -26 -95 -26 -149 0 -64 31 -85
62 -81 123 3 49 19 67 27 29 5 -26 31 -53 51 -53 9 0 25 9 34 19 17 19 17 21
-5 50 -12 17 -31 33 -40 36 -28 9 -22 82 10 106 29 23 78 25 103 2 11 -10 39
-17 72 -19 l55 -2 -10 27 c-6 14 -16 33 -23 41 -31 39 -36 65 -27 142 10 88
35 128 106 169 65 38 116 42 214 17z m-409 -58 c-19 -13 -30 -13 -30 0 0 6 10
10 23 10 18 0 19 -2 7 -10z m-45 -27 c-3 -10 -9 -30 -12 -45 -3 -15 -9 -25
-14 -22 -13 8 -11 58 3 72 18 18 31 15 23 -5z m111 -39 c1 -27 0 -38 -3 -24
-3 14 -9 29 -14 35 -14 14 -11 47 4 43 7 -3 13 -24 13 -54z m748 26 c4 -5 5
-26 1 -48 -5 -34 -11 -40 -41 -50 -31 -9 -38 -8 -60 13 -18 17 -24 30 -19 44
3 11 1 23 -6 27 -20 12 43 33 81 27 19 -3 39 -9 44 -13z m-794 -96 c0 -18 -39
-18 -62 0 -26 19 -23 22 22 18 26 -3 40 -9 40 -18z m861 -103 c28 -28 40 -71
19 -71 -5 0 -10 9 -10 20 0 22 -28 40 -63 40 -18 0 -28 -8 -37 -30 -14 -33
-30 -31 -30 3 0 15 13 29 38 44 48 28 48 28 83 -6z m-73 -97 c30 -21 28 -36
-5 -32 -20 2 -29 9 -31 26 -4 26 5 28 36 6z m77 -14 c3 -5 30 -10 60 -10 63 0
161 -28 204 -60 79 -55 105 -193 56 -287 -28 -51 -26 -78 4 -70 22 5 51 -9 51
-26 1 -7 14 -28 30 -47 17 -19 30 -43 30 -55 -1 -19 -1 -19 -14 -2 -7 9 -17
17 -21 17 -14 0 -55 -43 -55 -57 0 -7 -9 -13 -20 -13 -11 0 -20 6 -20 13 0 7
-6 22 -14 33 -15 19 -15 19 -30 -1 -15 -20 -15 -19 -16 6 0 15 -7 29 -15 33
-9 3 -19 16 -24 28 -8 21 -13 23 -77 20 -116 -6 -187 28 -241 112 -32 50 -37
162 -10 216 26 53 73 101 91 94 22 -8 20 13 -1 25 -14 8 -15 12 -4 25 15 18
27 20 36 6z m-1210 -56 c75 -35 114 -80 135 -158 9 -36 15 -68 12 -71 -3 -3
-20 -5 -39 -5 -20 0 -33 -5 -33 -13 0 -19 21 -37 43 -37 16 0 18 -5 12 -27 -3
-16 -15 -37 -26 -49 -10 -11 -19 -26 -19 -32 0 -12 -19 -18 -88 -26 -24 -2
-52 -12 -63 -21 -39 -36 -149 7 -209 81 -39 49 -47 74 -49 154 -3 170 168 277
324 204z m692 -96 c-3 -7 -5 -2 -5 12 0 14 2 19 5 13 2 -7 2 -19 0 -25z m260
-70 c-3 -8 -6 -5 -6 6 -1 11 2 17 5 13 3 -3 4 -12 1 -19z m-231 -125 c17 -56
61 -103 71 -75 8 22 40 13 50 -15 42 -119 42 -122 26 -186 -24 -94 -102 -163
-208 -183 -30 -5 -36 -3 -46 20 -14 29 -18 31 -54 14 -42 -19 -85 10 -140 94
-21 31 -25 50 -25 108 0 149 92 238 248 239 61 1 73 -2 78 -16z m-433 -91 c6
-15 20 -33 29 -40 19 -14 24 -57 8 -67 -5 -3 -23 1 -40 10 -37 19 -50 13 -50
-26 0 -43 -24 -36 -57 16 -31 48 -43 56 -43 25 0 -11 5 -20 10 -20 6 0 10 -16
10 -35 0 -19 -5 -35 -11 -35 -5 0 -8 4 -5 9 9 14 -4 41 -20 41 -7 0 -16 -11
-20 -25 -3 -14 -11 -25 -16 -25 -14 0 -5 133 9 137 6 2 25 17 41 32 25 25 38
29 86 30 52 0 58 -2 69 -27z m-552 -93 c35 -38 36 -56 6 -100 -20 -29 -29 -34
-61 -33 -21 1 -45 9 -54 18 -16 16 -15 17 19 11 42 -8 75 6 84 35 8 24 -19 66
-46 73 -12 3 -18 10 -14 16 11 19 36 12 66 -20z m-105 -41 l-26 -43 0 37 c0
27 6 41 22 53 32 22 34 3 4 -47z m1621 50 c15 -6 38 -21 51 -32 23 -20 30 -60
12 -71 -18 -11 -10 -35 15 -45 50 -19 19 -122 -51 -168 -53 -35 -87 -38 -128
-12 -44 26 -47 45 -7 37 33 -7 75 18 67 40 -3 8 3 32 14 53 20 39 26 80 13 80
-15 0 -63 -55 -63 -73 0 -11 -9 -21 -21 -24 -12 -3 -27 -20 -34 -37 l-13 -31
-11 28 c-21 54 -68 22 -58 -40 7 -41 -17 -92 -43 -94 -72 -5 -122 24 -118 71
1 14 -2 31 -6 38 -5 8 2 22 20 39 25 23 34 25 80 20 l53 -5 3 56 3 57 43 7
c24 4 55 3 69 -3 32 -12 66 13 61 45 -3 18 -9 21 -45 19 -48 -2 -52 4 -23 35
23 25 72 29 117 10z m163 -40 c0 -16 -3 -19 -11 -11 -6 6 -8 16 -5 22 11 17
16 13 16 -11z m-302 -29 c-2 -6 -8 -10 -13 -10 -5 0 -11 4 -13 10 -2 6 4 11
13 11 9 0 15 -5 13 -11z m-1095 -31 c28 -33 22 -49 -13 -36 -42 14 -62 4 -58
-29 4 -35 48 -59 78 -43 59 31 96 -73 44 -124 -22 -23 -81 -21 -93 3 -13 23
-67 33 -82 14 -16 -19 -3 -43 31 -56 40 -15 33 -31 -16 -35 -82 -5 -134 57
-134 161 0 43 6 62 28 93 16 21 36 45 45 52 41 34 140 34 170 0z m325 -100
c20 -20 14 -28 -23 -28 -38 0 -75 -28 -75 -57 0 -13 -3 -14 -11 -6 -20 20 13
74 53 89 44 16 42 16 56 2z m1428 -53 c-4 -14 -11 -25 -16 -25 -13 0 -13 16 1
42 14 26 23 16 15 -17z m-1388 -27 c2 -29 -2 -40 -24 -57 -30 -24 -71 -27 -96
-7 -36 27 -17 47 24 25 11 -6 31 -8 44 -5 20 5 24 12 24 47 0 51 24 49 28 -3z
m314 -78 c42 -12 48 -19 53 -60 3 -20 -5 -41 -26 -69 -35 -49 -35 -54 -5 -84
25 -25 25 -25 43 -5 10 11 18 34 18 51 0 17 5 32 12 34 12 4 42 -45 37 -62 -1
-5 -5 -27 -9 -48 -24 -143 -279 -160 -359 -23 -58 99 -22 196 78 211 30 5 50
13 53 24 16 43 37 49 105 31z m-444 -51 c116 -58 165 -181 118 -294 -77 -183
-347 -190 -438 -11 -18 35 -20 52 -15 124 5 74 10 88 38 123 30 38 32 39 55
24 38 -25 54 -19 54 18 0 19 3 37 7 40 3 4 32 7 63 7 43 0 71 -7 118 -31z
m951 -59 c81 -41 121 -107 121 -201 0 -68 -14 -100 -62 -146 -46 -44 -97 -63
-171 -63 -57 0 -71 4 -118 36 -30 19 -62 49 -72 65 -16 30 -16 32 3 56 27 35
25 53 -5 53 -22 0 -25 4 -25 33 0 17 9 52 20 76 l20 44 23 -21 c26 -25 38 -27
54 -11 9 9 8 19 -3 42 -18 34 -13 41 36 56 50 15 130 6 179 -19z m-370 -297
c17 -10 31 -26 31 -36 0 -10 7 -20 15 -23 17 -7 21 -64 5 -64 -5 0 -10 4 -10
9 0 5 -16 11 -35 13 -34 4 -35 3 -35 -28 0 -18 -5 -36 -11 -40 -16 -9 -58 40
-65 76 -9 42 -24 48 -24 9 0 -32 -32 -79 -53 -79 -14 0 1 98 21 127 32 50 107
66 161 36z m-361 -112 c4 -11 -3 -12 -32 -7 -32 6 -37 4 -47 -18 -9 -19 -9
-32 1 -56 14 -33 22 -35 70 -19 30 11 32 14 27 51 -5 34 -3 37 10 27 31 -27
-15 -119 -59 -119 -29 0 -76 28 -82 48 -9 26 1 94 14 102 20 12 93 6 98 -9z
m912 -44 c0 -8 -11 -19 -25 -25 -31 -14 -33 1 -3 22 27 19 28 19 28 3z"/>
<path d="M1197 2108 c-6 -20 4 -48 17 -48 7 0 21 6 31 14 16 12 17 16 6 30
-16 19 -48 21 -54 4z"/>
<path d="M1376 2051 c-10 -11 -16 -31 -14 -48 3 -24 8 -28 39 -31 34 -3 37 -1
41 27 3 22 -1 36 -17 51 -26 25 -28 25 -49 1z"/>
<path d="M1146 1931 c-3 -5 0 -26 8 -47 16 -47 51 -59 65 -22 12 33 -12 78
-44 78 -13 0 -26 -4 -29 -9z"/>
<path d="M1086 1828 c-4 -17 2 -30 24 -50 l30 -27 15 23 c19 29 13 47 -22 64
-36 16 -40 16 -47 -10z"/>
<path d="M1963 1845 c-13 -37 27 -61 55 -33 18 18 15 25 -18 37 -25 8 -32 7
-37 -4z"/>
<path d="M1950 1585 c-28 -34 9 -57 53 -34 32 17 32 18 11 34 -25 19 -48 19
-64 0z"/>
<path d="M2325 1421 c-3 -5 -1 -12 5 -16 5 -3 10 1 10 9 0 18 -6 21 -15 7z"/>
<path d="M617 1653 c-4 -3 -7 -17 -7 -30 0 -19 5 -23 30 -23 34 0 49 22 30 45
-13 16 -42 20 -53 8z"/>
<path d="M1374 1516 c-7 -18 13 -56 29 -56 7 0 22 6 33 14 15 12 17 18 8 33
-14 23 -62 30 -70 9z"/>
<path d="M1246 1402 c-6 -10 17 -79 31 -93 8 -8 17 -4 32 12 27 29 27 35 -6
64 -29 25 -48 31 -57 17z"/>
<path d="M1506 1305 c-9 -9 -16 -23 -16 -30 0 -17 31 -35 60 -35 18 0 21 5 18
38 -2 29 -8 38 -24 40 -12 2 -29 -4 -38 -13z"/>
<path d="M1697 1152 c-21 -23 -22 -66 -1 -86 19 -20 28 -20 63 -1 40 20 46 51
16 81 -29 29 -56 31 -78 6z"/>
<path d="M670 1182 c0 -47 2 -50 40 -44 38 5 40 33 4 61 -37 29 -44 27 -44
-17z"/>
<path d="M1292 978 c-7 -7 -12 -22 -12 -34 0 -58 31 -71 70 -29 22 23 22 25 6
50 -18 27 -45 32 -64 13z"/>
<path d="M1382 893 c-20 -25 -20 -28 -5 -45 9 -10 25 -18 35 -18 17 0 19 5 13
30 -4 19 -3 30 4 30 6 0 11 7 11 15 0 24 -35 17 -58 -12z"/>
<path d="M953 828 c-25 -12 -33 -35 -22 -66 11 -30 21 -28 48 8 35 48 20 80
-26 58z"/>
<path d="M2370 2010 c0 -5 7 -10 15 -10 8 0 15 5 15 10 0 6 -7 10 -15 10 -8 0
-15 -4 -15 -10z"/>
</g>
</svg>
