<?xml version="1.0" encoding="utf-8"?>
<!-- Generator: Adobe Illustrator 22.0.0, SVG Export Plug-In . SVG Version: 6.00 Build 0)  -->
<svg version="1.1" id="Layer_1" xmlns="http://www.w3.org/2000/svg" xmlns:xlink="http://www.w3.org/1999/xlink" x="0px" y="0px"
	 viewBox="0 0 150 150" style="enable-background:new 0 0 150 150;" xml:space="preserve">
<style type="text/css">
	.st0{fill:#6A39B0;}
	.st1{fill:#DD1B16;}
	.st2{fill:#FBC02D;}
	.st3{fill:#FFEB3B;}
	.st4{fill:#FFFFFF;}
</style>
<rect class="st0" width="150" height="150"/>
<g>
	<g>
		<g>
			<path class="st1" d="M93.1,93.1c-5.9-13.6-12-28-18.1-43.4c-1.9,4.8-3.8,9.4-5.7,14c-4.4,10.7-8.8,20.9-13,30.7
				c12.2,3.8,25.2,3.8,37.4,0C93.5,94,93.3,93.5,93.1,93.1z"/>
			<path class="st2" d="M84.1,93.6c-0.2,0-0.4,0.1-0.6,0.1c-3.2,0.4-6.5,0.6-9.7,0.5c-2.9-0.1-18.1-0.4-17.3-4.5
				c0.3-1.4,1.6-2.4,2.3-3.6c0.9-1.5,1.5-3.2,2.3-4.8c1.7-3.5,3.1-7.1,3.2-11c0-1.2,0.4-2.6,1.5-3.1c0.4-0.2,0.9-0.2,1.2-0.5
				c0.6-0.4,0.6-1.2,0.7-2c0.1-1.8,0.6-3.4,0.8-5.2c0.2-1.4,0.1-2.8,0.4-4.2c0.4-1.5,1-0.7,1.7-1.3c0.2-0.2,0.3-0.5,0.3-0.8
				c0.2-2.6,1.1-5.1,2.6-7.4c0.4-0.6,1.2-1.2,1.8-0.8c0.4,0.2,0.4,0.7,0.5,1.1c0,0.1,0,0.2,0,0.3c0.2,1.2,0.3,2.5,0.5,3.7
				c0,0.3,0.1,0.7,0.1,1c0.1-0.1,0.2-0.1,0.3-0.1c0.5-0.1,1,0.2,1.3,0.6c0,0,0,0,0,0.1c0.1,0.2,0.2,0.4,0.3,0.7
				c0.1,0.2,0.1,0.5,0.1,0.7c0,3.2,1.9,6.5,2.6,9.6c0.1,0.2,0.1,0.5,0.4,0.6c0.3,0.1,0.6,0,0.9,0c0.1,0,0.2,0,0.3,0.1
				c0.4,0.2,0.7,0.7,0.8,1.2c0,0,0,0.1,0,0.1c1.1,3.6,2,7.2,3.1,10.8c0.6,2,1.2,3.6,2,5.5c0.7,1.6,1.5,3.2,2.2,4.8
				c0.5,1.1,1.4,2,1.8,3C94.2,92.8,86.6,93.3,84.1,93.6z"/>
			<path class="st3" d="M84.1,93.6c-0.2,0-0.4,0.1-0.6,0.1c-7-0.1-14.1-0.4-20.7-2.6c-0.8-0.3-1.7-0.6-2.2-1.3
				c-1.4-1.7,1.4-5.5,2.2-7.2c1.7-3.5,3.1-7.1,3.2-11c0-1.2,0.4-2.6,1.5-3.1c0.4-0.2,0.9-0.2,1.2-0.5c0.6-0.4,0.6-1.2,0.7-2
				c0.1-1.8,0.6-3.4,0.8-5.2c0.2-1.4,0.1-2.8,0.4-4.2c0.4-1.5,1-0.7,1.7-1.3c0.2-0.2,0.3-0.5,0.3-0.8c0.2-2.6,1.1-5.1,2.6-7.4
				c0.2-0.2,0.4-0.5,0.6-0.7c0.2,1.2,0.3,2.5,0.5,3.7c0,0.3,0.1,0.7,0.1,1c0.1-0.1,0.2-0.1,0.3-0.1c0.5-0.1,1,0.2,1.3,0.6
				c0,0,0,0,0,0.1c0.1,0.2,0.2,0.4,0.3,0.7c0.1,0.2,0.1,0.5,0.1,0.7c0,3.2,1.9,6.5,2.6,9.6c0.1,0.2,0.1,0.5,0.4,0.6
				c0.3,0.1,0.6,0,0.9,0c0.1,0,0.2,0,0.3,0.1c0.4,0.2,0.7,0.7,0.8,1.2c0,0,0,0.1,0,0.1c1.1,3.6,2,7.2,3.1,10.8c0.6,2,1.2,3.6,2,5.5
				c0.7,1.6,1.5,3.2,2.2,4.8c0.5,1.1,1.4,2,1.8,3C94.2,92.8,86.6,93.3,84.1,93.6z"/>
			<path class="st2" d="M97.1,98.4L96,95.8c-0.5-1.2-1.8-1.8-3-1.5c-11.8,3.3-24.2,3.3-35.9,0c-0.3-0.1-0.7-0.1-1-0.1
				c-0.9,0.1-1.7,0.7-2,1.6l-1.1,2.5c-0.6,1.4,0.1,3,1.6,3.5c12.1,4.1,29,4.2,41,0c0.2-0.1,0.4-0.2,0.6-0.3
				C97.1,100.9,97.6,99.6,97.1,98.4z"/>
			<path class="st3" d="M97.1,98.4L96,95.8c-0.5-1.2-1.8-1.8-3-1.5c-11.8,3.3-24.2,3.3-35.9,0c-0.3-0.1-0.7-0.1-1-0.1l-1,2.4
				c-0.6,1.4,0.1,3,1.6,3.5c11.4,3.8,27.6,4.8,39.5,1.4C97.1,100.9,97.6,99.6,97.1,98.4z"/>
		</g>
	</g>
	<g>
		<polygon class="st1" points="74.9,70.5 74.9,70.5 74.9,70.5 67.1,73.3 68.3,83.6 74.9,87.3 74.9,87.3 74.9,87.3 81.6,83.6 
			82.9,73.2 		"/>
		<path class="st4" d="M74.9,71.1L74.9,71.1L74.9,71.1L74.9,71.1L74.9,71.1l-5.5,12.2l2,0l1.1-2.7h2.3l0,0l2.6,0l1.2,2.8l2,0
			L74.9,71.1z M74.9,75l1.8,3.9H75l-0.1,0h-1.6L74.9,75z"/>
	</g>
</g>
</svg>
