<?xml version="1.0" encoding="utf-8"?>
<!-- Generator: Adobe Illustrator 22.0.0, SVG Export Plug-In . SVG Version: 6.00 Build 0)  -->
<svg version="1.1" id="Layer_1" xmlns="http://www.w3.org/2000/svg" xmlns:xlink="http://www.w3.org/1999/xlink" x="0px" y="0px"
	 viewBox="0 0 500 250" style="enable-background:new 0 0 500 250;" xml:space="preserve">
<style type="text/css">
	.st0{fill:#6A39B0;}
	.st1{fill:#DD1B16;}
	.st2{fill:#FBC02D;}
	.st3{fill:#FFEB3B;}
	.st4{fill:#FFFFFF;}
</style>
<rect class="st0" width="500" height="250"/>
<g>
	<g>
		<g>
			<g>
				<path class="st1" d="M253,143.1c-5.9-13.6-12-28-18.1-43.4c-1.9,4.8-3.8,9.4-5.7,14c-4.4,10.7-8.8,20.9-13,30.7
					c12.2,3.8,25.2,3.8,37.4,0C253.4,144,253.2,143.5,253,143.1z"/>
				<path class="st2" d="M244,143.6c-0.2,0-0.4,0.1-0.6,0.1c-3.2,0.4-6.5,0.6-9.7,0.5c-2.9-0.1-18.1-0.4-17.3-4.5
					c0.3-1.4,1.6-2.4,2.3-3.6c0.9-1.5,1.5-3.2,2.3-4.8c1.7-3.5,3.1-7.1,3.2-11c0-1.2,0.4-2.6,1.5-3.1c0.4-0.2,0.9-0.2,1.2-0.5
					c0.6-0.4,0.6-1.2,0.7-2c0.1-1.8,0.6-3.4,0.8-5.2c0.2-1.4,0.1-2.8,0.4-4.2c0.4-1.5,1-0.7,1.7-1.3c0.2-0.2,0.3-0.5,0.3-0.8
					c0.2-2.6,1.1-5.1,2.6-7.4c0.4-0.6,1.2-1.2,1.8-0.8c0.4,0.2,0.4,0.7,0.5,1.1c0,0.1,0,0.2,0,0.3c0.2,1.2,0.3,2.5,0.5,3.7
					c0,0.3,0.1,0.7,0.1,1c0.1-0.1,0.2-0.1,0.3-0.1c0.5-0.1,1,0.2,1.3,0.6c0,0,0,0,0,0.1c0.1,0.2,0.2,0.4,0.3,0.7
					c0.1,0.2,0.1,0.5,0.1,0.7c0,3.2,1.9,6.5,2.6,9.6c0.1,0.2,0.1,0.5,0.4,0.6c0.3,0.1,0.6,0,0.9,0c0.1,0,0.2,0,0.3,0.1
					c0.4,0.2,0.7,0.7,0.8,1.2c0,0,0,0.1,0,0.1c1.1,3.6,2,7.2,3.1,10.8c0.6,2,1.2,3.6,2,5.5c0.7,1.6,1.5,3.2,2.2,4.8
					c0.5,1.1,1.4,2,1.8,3C254.2,142.8,246.5,143.3,244,143.6z"/>
				<path class="st3" d="M244,143.6c-0.2,0-0.4,0.1-0.6,0.1c-7-0.1-14.1-0.4-20.7-2.6c-0.8-0.3-1.7-0.6-2.2-1.3
					c-1.4-1.7,1.4-5.5,2.2-7.2c1.7-3.5,3.1-7.1,3.2-11c0-1.2,0.4-2.6,1.5-3.1c0.4-0.2,0.9-0.2,1.2-0.5c0.6-0.4,0.6-1.2,0.7-2
					c0.1-1.8,0.6-3.4,0.8-5.2c0.2-1.4,0.1-2.8,0.4-4.2c0.4-1.5,1-0.7,1.7-1.3c0.2-0.2,0.3-0.5,0.3-0.8c0.2-2.6,1.1-5.1,2.6-7.4
					c0.2-0.2,0.4-0.5,0.6-0.7c0.2,1.2,0.3,2.5,0.5,3.7c0,0.3,0.1,0.7,0.1,1c0.1-0.1,0.2-0.1,0.3-0.1c0.5-0.1,1,0.2,1.3,0.6
					c0,0,0,0,0,0.1c0.1,0.2,0.2,0.4,0.3,0.7c0.1,0.2,0.1,0.5,0.1,0.7c0,3.2,1.9,6.5,2.6,9.6c0.1,0.2,0.1,0.5,0.4,0.6
					c0.3,0.1,0.6,0,0.9,0c0.1,0,0.2,0,0.3,0.1c0.4,0.2,0.7,0.7,0.8,1.2c0,0,0,0.1,0,0.1c1.1,3.6,2,7.2,3.1,10.8c0.6,2,1.2,3.6,2,5.5
					c0.7,1.6,1.5,3.2,2.2,4.8c0.5,1.1,1.4,2,1.8,3C254.2,142.8,246.5,143.3,244,143.6z"/>
				<path class="st2" d="M257,148.4l-1.1-2.6c-0.5-1.2-1.8-1.8-3-1.5c-11.8,3.3-24.2,3.3-35.9,0c-0.3-0.1-0.7-0.1-1-0.1
					c-0.9,0.1-1.7,0.7-2,1.6l-1.1,2.5c-0.6,1.4,0.1,3,1.6,3.5c12.1,4.1,29,4.2,41,0c0.2-0.1,0.4-0.2,0.6-0.3
					C257.1,150.9,257.5,149.6,257,148.4z"/>
				<path class="st3" d="M257,148.4l-1.1-2.6c-0.5-1.2-1.8-1.8-3-1.5c-11.8,3.3-24.2,3.3-35.9,0c-0.3-0.1-0.7-0.1-1-0.1l-1,2.4
					c-0.6,1.4,0.1,3,1.6,3.5c11.4,3.8,27.6,4.8,39.5,1.4C257.1,150.9,257.5,149.6,257,148.4z"/>
			</g>
		</g>
		<g>
			<polygon class="st1" points="234.8,120.5 234.8,120.5 234.8,120.5 227,123.3 228.2,133.6 234.8,137.3 234.8,137.3 234.8,137.3 
				241.6,133.6 242.9,123.2 			"/>
			<path class="st4" d="M234.8,121.1L234.8,121.1L234.8,121.1L234.8,121.1L234.8,121.1l-5.5,12.2l2,0l1.1-2.7h2.3l0,0l2.6,0l1.2,2.8
				l2,0L234.8,121.1z M234.8,125l1.8,3.9h-1.8l-0.1,0h-1.6L234.8,125z"/>
		</g>
	</g>
	<g>
		<path class="st4" d="M84.4,145.2v-19.4v-19.3H99c1.1,0,2.3,0.2,3.3,0.4s2.1,0.6,3,1.2c0.9,0.6,1.8,1.2,2.5,1.9
			c0.8,0.7,1.4,1.5,1.9,2.4c0.3,0.5,0.6,1,0.8,1.6c0.3,0.5,0.4,1,0.6,1.6c0.2,0.6,0.3,1.1,0.4,1.7c0.1,0.6,0.1,1.2,0.1,1.8
			c0,1.1-0.2,2.2-0.4,3.3c-0.3,1-0.6,2.1-1.2,3c-0.5,0.9-1.2,1.8-1.9,2.5c-0.7,0.7-1.5,1.4-2.4,1.9l-1.5,0.8
			c-0.5,0.3-1.1,0.4-1.7,0.6c-0.6,0.2-1.1,0.3-1.7,0.4c-0.6,0.1-1.2,0.1-1.8,0.1h-6.3v13.2C88.6,145.2,85.8,145.2,84.4,145.2z
			 M99,123.5c0.6,0,1.1-0.1,1.7-0.3c0.5-0.2,1-0.5,1.4-1s0.8-0.9,0.9-1.4c0.2-0.5,0.3-1.1,0.3-1.7c0-0.6-0.1-1.2-0.3-1.7
			c-0.2-0.5-0.5-1-0.9-1.4c-0.4-0.4-0.9-0.8-1.4-0.9c-0.5-0.2-1.1-0.3-1.7-0.3h-6.3v8.7h2.9h3.2H99z"/>
		<path class="st4" d="M119,106.5h8.7v38.7H119v-14.5V106.5z"/>
		<path class="st4" d="M135.2,145.2v-5.5v-1.9l21-23.4H136v-7.8h30.7v7.4c-10.4,11.7-17.4,19.5-20.9,23.4h21v7.8H135.2z"/>
		<path class="st4" d="M172.8,145.2v-5.5v-1.9l21-23.4h-20.1v-7.8h30.7v7.4c-10.4,11.7-17.4,19.5-20.9,23.4h21v7.8H172.8z"/>
		<path class="st4" d="M276.8,145.9c-0.6-0.1-1.1-0.2-1.6-0.3c-0.5-0.1-1.1-0.2-1.6-0.4c-0.5-0.1-1-0.3-1.5-0.4
			c-0.9-0.3-1.7-0.6-2.4-1c-0.8-0.4-1.5-0.7-2.1-1.1l-1.6-1l-1-0.7l-1.2-1c0.6-0.7,1.2-1.6,2.1-2.6l2.9-3.7l1.2,1
			c0.2,0.2,0.5,0.4,1,0.6l1.9,1.1c0.8,0.5,1.7,0.8,2.6,1c0.9,0.3,1.8,0.4,2.9,0.4c0.4,0,0.7,0,1.1-0.1l1.1-0.2
			c0.3-0.1,0.6-0.2,1-0.3l1-0.5c0.3-0.2,0.5-0.4,0.7-0.5c0.2-0.2,0.3-0.4,0.5-0.6s0.3-0.5,0.3-0.8c0.1-0.3,0.1-0.5,0.1-0.8
			c-0.1-0.3-0.1-0.6-0.2-0.9c-0.1-0.3-0.3-0.5-0.5-0.7l-0.6-0.5c-0.2-0.2-0.4-0.3-0.6-0.3l-0.6-0.3l-0.9-0.3l-2-0.6l-3.5-1.2
			c-0.6-0.2-1.2-0.4-1.8-0.7c-0.5-0.2-1.1-0.4-1.6-0.7c-0.9-0.5-1.7-1-2.5-1.6c-0.7-0.6-1.4-1.2-1.9-2.1c-0.6-0.8-1-1.6-1.4-2.5
			c-0.3-0.9-0.5-1.8-0.6-2.7c-0.1-1-0.1-1.9,0.1-2.9c0.2-0.9,0.4-1.8,0.8-2.7c0.4-0.9,0.9-1.7,1.5-2.5c0.6-0.8,1.4-1.5,2.2-2.2
			c0.3-0.3,0.8-0.6,1.2-0.9l1.8-1c0.7-0.4,1.5-0.6,2.4-0.8s1.8-0.3,2.8-0.3c0.9,0,1.8,0.1,2.8,0.3s1.9,0.4,2.8,0.8
			c0.9,0.4,1.9,0.8,2.8,1.3l2.9,1.8l1.2,0.8l-1.9,2.8c-0.8,1.1-1.6,2.4-2.6,3.9l-1.3-0.9l-1.1-0.7l-1.7-0.9c-0.6-0.3-1.3-0.6-2-0.8
			c-0.6-0.2-1.3-0.3-2-0.3c-0.3,0-0.6,0-0.9,0.1l-0.8,0.2c-0.3,0.1-0.5,0.2-0.7,0.3c-0.3,0.1-0.5,0.3-0.7,0.4
			c-0.3,0.3-0.5,0.5-0.8,0.8c-0.2,0.2-0.4,0.5-0.5,0.8s-0.2,0.5-0.3,0.8c-0.1,0.3-0.1,0.6-0.1,0.9c0.1,0.3,0.1,0.5,0.2,0.7
			c0.1,0.3,0.3,0.5,0.4,0.8c0.2,0.2,0.4,0.4,0.6,0.6c0.2,0.2,0.5,0.4,0.8,0.5l1.2,0.6l1.5,0.5l1.5,0.5l1.5,0.5
			c0.4,0.2,0.9,0.3,1.2,0.4s0.8,0.2,1.1,0.4l1,0.4l0.9,0.4c1,0.4,1.9,1,2.6,1.7c0.8,0.6,1.5,1.4,2.1,2.2c0.6,0.8,1,1.7,1.4,2.6
			c0.4,0.9,0.5,1.8,0.5,2.9v0.6c0,0.9-0.1,1.8-0.3,2.6c-0.2,0.9-0.5,1.7-1,2.5c-0.5,0.9-1.1,1.7-1.8,2.4c-0.7,0.7-1.5,1.4-2.4,1.9
			c-0.6,0.4-1.2,0.6-1.9,0.9c-0.6,0.3-1.3,0.5-2,0.7c-0.7,0.2-1.4,0.3-2.1,0.4c-0.7,0.1-1.5,0.1-2.2,0.1
			C277.9,145.9,277.4,145.9,276.8,145.9z"/>
		<path class="st4" d="M311.5,145.2v-14.6l-15.7-20.3c0.7-0.6,1.6-1.3,2.7-2.1l3.8-3c6.7,8.6,11.1,14.3,13.4,17.1l13.3-17.1
			c0.7,0.6,1.6,1.3,2.8,2.1c1.1,0.8,2.3,1.8,3.8,3l-15.7,20.3v14.6H311.5z"/>
		<path class="st4" d="M365.1,145.2l-16.4-23.9v23.9h-8.2v-19.4v-19.3h7.5l16.2,23.8v-23.8h8.1v38.7H365.1z"/>
		<path class="st4" d="M396.8,145.8c-0.9-0.1-1.8-0.3-2.8-0.5c-0.9-0.3-1.8-0.6-2.6-1c-0.8-0.4-1.6-0.8-2.4-1.3
			c-1.5-0.9-2.7-1.9-3.8-3.1c-1.1-1.2-2.2-2.5-3.1-4.1c-0.9-1.5-1.5-3-1.9-4.7c-0.4-1.7-0.6-3.4-0.6-5.2c0-1.8,0.2-3.5,0.6-5.2
			c0.4-1.7,1.1-3.2,1.9-4.7c0.9-1.5,1.9-2.9,3.1-4.1c1.1-1.2,2.4-2.2,3.8-3.1c0.8-0.5,1.6-0.9,2.4-1.3c0.8-0.4,1.7-0.6,2.6-0.9
			c0.9-0.3,1.8-0.4,2.8-0.6c0.9-0.2,1.9-0.2,2.8-0.2c1.4,0,2.6,0.1,3.9,0.4c1.2,0.2,2.5,0.6,3.7,1.1c1.2,0.5,2.4,1.1,3.4,1.8
			c1.1,0.7,2.1,1.6,3,2.5l1,1l-4.9,5.9l-1.2-1.1c-0.7-0.6-1.4-1.1-2.1-1.6c-0.7-0.4-1.4-0.7-2.1-0.9c-0.7-0.3-1.5-0.4-2.3-0.5
			s-1.6-0.2-2.5-0.2c-1.7,0-3.2,0.3-4.7,0.9c-1.4,0.5-2.7,1.4-3.8,2.5c-1.1,1.1-2,2.4-2.6,3.8c-0.6,1.4-0.9,3-0.9,4.6
			c0,1.7,0.3,3.2,0.9,4.6c0.6,1.4,1.5,2.6,2.6,3.8c1.1,1.1,2.4,2,3.8,2.5c1.5,0.6,3,0.9,4.7,0.9c0.9,0,1.8-0.1,2.6-0.2
			c0.8-0.2,1.7-0.4,2.5-0.6c0.8-0.3,1.6-0.6,2.3-1.1c0.7-0.5,1.4-1,2.1-1.7l0.5-0.6l0.8-0.8l5.2,5.6l-1,1.1c-0.9,1.1-2,2.1-3.1,2.9
			c-1.1,0.8-2.4,1.5-3.7,2.1c-1.4,0.6-2.6,1-4,1.3c-1.4,0.3-2.8,0.5-4.2,0.4C398.7,146,397.7,145.9,396.8,145.8z"/>
	</g>
</g>
</svg>
