<?xml version="1.0" encoding="utf-8"?>
<!-- Generator: Adobe Illustrator 22.0.0, SVG Export Plug-In . SVG Version: 6.00 Build 0)  -->
<svg version="1.1" id="Layer_1" xmlns="http://www.w3.org/2000/svg" xmlns:xlink="http://www.w3.org/1999/xlink" x="0px" y="0px"
	 viewBox="0 0 150 150" style="enable-background:new 0 0 150 150;" xml:space="preserve">
<style type="text/css">
	.st0{fill:#6A39B0;}
	.st1{fill:#FFFFFF;}
</style>
<rect class="st0" width="150" height="150"/>
<g>
	<g>
		<g>
			<path class="st0" d="M76.4,50.2C76.4,50.2,76.4,50.2,76.4,50.2C76.4,50.2,76.4,50.2,76.4,50.2C76.4,50.2,76.4,50.2,76.4,50.2z"/>
		</g>
		<path class="st1" d="M97,97.4l-1.1-2.6c-0.5-1.2-1.8-1.8-3-1.5c-11.8,3.3-24.2,3.3-35.9,0c-0.3-0.1-0.7-0.1-1-0.1
			c-0.9,0.1-1.7,0.7-2,1.6l-1.1,2.5c-0.6,1.4,0.1,3,1.6,3.5c12.1,4.1,29,4.2,41,0c0.2-0.1,0.4-0.2,0.6-0.3
			C97.1,99.9,97.5,98.6,97,97.4z"/>
	</g>
</g>
<g>
	<path class="st1" d="M92.6,87.9c-0.4-1.1-1.3-2-1.8-3c-0.7-1.6-1.5-3.2-2.2-4.8c-0.9-1.9-1.4-3.4-2-5.5c-1.1-3.6-2-7.2-3.1-10.8
		c0,0,0-0.1,0-0.1c-0.1-0.5-0.4-1-0.8-1.2c-0.1,0-0.2-0.1-0.3-0.1c-0.3,0-0.6,0.1-0.9,0c-0.2-0.1-0.3-0.4-0.4-0.6
		c-0.7-3.1-2.6-6.4-2.6-9.6c0-0.2-0.1-0.5-0.1-0.7c-0.1-0.2-0.1-0.5-0.3-0.7c0,0,0,0,0-0.1c-0.3-0.4-0.8-0.7-1.3-0.6
		c-0.1,0-0.2,0.1-0.3,0.1c0-0.3-0.1-0.7-0.1-1c-0.2-1.2-0.3-2.5-0.5-3.7c0-0.1,0-0.2,0-0.3c-0.1-0.4-0.1-0.9-0.5-1.1
		c-0.6-0.4-1.4,0.2-1.8,0.8c-1.5,2.3-2.4,4.8-2.6,7.4c0,0.3-0.1,0.6-0.3,0.8c-0.7,0.6-1.3-0.1-1.7,1.3c-0.4,1.4-0.3,2.8-0.4,4.2
		c-0.2,1.8-0.8,3.4-0.8,5.2c0,0.7-0.1,1.5-0.7,2c-0.4,0.3-0.8,0.3-1.2,0.5c-1.2,0.5-1.5,1.9-1.5,3.1c-0.1,3.9-1.6,7.5-3.2,11
		c-0.7,1.6-1.4,3.3-2.3,4.8c-0.7,1.2-2,2.2-2.3,3.6c-0.8,4.1,14.4,4.4,17.3,4.5c3.2,0.1,6.5-0.1,9.7-0.5c0.2,0,0.4-0.1,0.6-0.1
		C86.5,92.3,94.2,91.8,92.6,87.9z M81.6,82.6l-6.7,3.7v0l0,0l-6.6-3.7L67,72.3l7.8-2.8l0,0v0l8,2.7L81.6,82.6z"/>
	<path class="st1" d="M74.8,70.1L74.8,70.1L74.8,70.1L74.8,70.1L74.8,70.1l-5.5,12.2l2,0l1.1-2.7h2.3l0,0l2.6,0l1.2,2.8l2,0
		L74.8,70.1z M74.8,74l1.8,3.9h-1.8l-0.1,0h-1.6L74.8,74z"/>
</g>
</svg>
