<?xml version="1.0" encoding="utf-8"?>
<!-- Generator: Adobe Illustrator 22.0.0, SVG Export Plug-In . SVG Version: 6.00 Build 0)  -->
<svg version="1.1" id="Layer_1" xmlns="http://www.w3.org/2000/svg" xmlns:xlink="http://www.w3.org/1999/xlink" x="0px" y="0px"
	 viewBox="0 0 50 65" style="enable-background:new 0 0 50 65;" xml:space="preserve">
<style type="text/css">
	.st0{fill:#6A39B0;}
	.st1{fill:#FFFFFF;}
</style>
<g>
	<g>
		<g>
			<g>
				<path class="st0" d="M26.4,8.8L26.4,8.8L26.4,8.8L26.4,8.8z"/>
			</g>
			<path class="st1" d="M47,56l-1.1-2.6c-0.5-1.2-1.8-1.8-3-1.5c-11.8,3.3-24.2,3.3-35.9,0c-0.3-0.1-0.7-0.1-1-0.1
				c-0.9,0.1-1.7,0.7-2,1.6l-1.1,2.5c-0.6,1.4,0.1,3,1.6,3.5c12.1,4.1,29,4.2,41,0c0.2-0.1,0.4-0.2,0.6-0.3
				C47.1,58.5,47.5,57.2,47,56z"/>
		</g>
	</g>
	<g>
		<path class="st1" d="M43,46.5c-0.4-1.1-1.3-2-1.8-3c-0.7-1.6-1.5-3.2-2.2-4.8c-0.9-1.9-1.4-3.4-2-5.5c-1.1-3.6-2-7.2-3.1-10.8
			v-0.1c-0.1-0.5-0.4-1-0.8-1.2c-0.1,0-0.2-0.1-0.3-0.1c-0.3,0-0.6,0.1-0.9,0c-0.2-0.1-0.3-0.4-0.4-0.6c-0.7-3.1-2.6-6.4-2.6-9.6
			c0-0.2-0.1-0.5-0.1-0.7c-0.1-0.2-0.1-0.5-0.3-0.7c0,0,0,0,0-0.1c-0.3-0.4-0.8-0.7-1.3-0.6c-0.1,0-0.2,0.1-0.3,0.1
			c0-0.3-0.1-0.7-0.1-1c-0.2-1.2-0.3-2.5-0.5-3.7c0-0.1,0-0.2,0-0.3c-0.1-0.4-0.1-0.9-0.5-1.1c-0.6-0.4-1.4,0.2-1.8,0.8
			c-1.5,2.3-2.4,4.8-2.6,7.4c0,0.3-0.1,0.6-0.3,0.8c-0.7,0.6-1.3-0.1-1.7,1.3c-0.4,1.4-0.3,2.8-0.4,4.2c-0.2,1.8-0.8,3.4-0.8,5.2
			c0,0.7-0.1,1.5-0.7,2c-0.4,0.3-0.8,0.3-1.2,0.5c-1.2,0.5-1.5,1.9-1.5,3.1c-0.1,3.9-1.6,7.5-3.2,11c-0.7,1.6-1.4,3.3-2.3,4.8
			C8.6,45,7.3,46,7,47.4c-0.8,4.1,14.4,4.4,17.3,4.5c3.2,0.1,6.5-0.1,9.7-0.5c0.2,0,0.4-0.1,0.6-0.1C36.9,50.9,44.6,50.4,43,46.5z
			 M32,41.2l-6.7,3.7l0,0l0,0l-6.6-3.7l-1.3-10.3l7.8-2.8l0,0l0,0l8,2.7L32,41.2z"/>
		<path class="st1" d="M25.2,28.7L25.2,28.7L25.2,28.7L25.2,28.7L25.2,28.7l-5.5,12.2h2l1.1-2.7h2.3l0,0h2.6l1.2,2.8h2L25.2,28.7z
			 M25.2,32.6l1.8,3.9h-1.8h-0.1h-1.6L25.2,32.6z"/>
	</g>
</g>
</svg>
