<?xml version="1.0" encoding="utf-8"?>
<!-- Generator: Adobe Illustrator 22.0.0, SVG Export Plug-In . SVG Version: 6.00 Build 0)  -->
<svg version="1.1" id="Layer_1" xmlns="http://www.w3.org/2000/svg" xmlns:xlink="http://www.w3.org/1999/xlink" x="0px" y="0px"
	 viewBox="0 0 50 65" style="enable-background:new 0 0 50 65;" xml:space="preserve">
<style type="text/css">
	.st0{fill:#DD1B16;}
	.st1{fill:#FBC02D;}
	.st2{fill:#FFEB3B;}
	.st3{fill:#FFFFFF;}
</style>
<g>
	<g>
		<g>
			<path class="st0" d="M43.1,50.7c-5.9-13.6-12-28-18.1-43.4c-1.9,4.8-3.8,9.4-5.7,14C14.9,32,10.5,42.2,6.3,52
				c12.2,3.8,25.2,3.8,37.4,0C43.5,51.6,43.3,51.1,43.1,50.7z"/>
			<path class="st1" d="M34.1,51.2c-0.2,0-0.4,0.1-0.6,0.1c-3.2,0.4-6.5,0.6-9.7,0.5c-2.9-0.1-18.1-0.4-17.3-4.5
				c0.3-1.4,1.6-2.4,2.3-3.6c0.9-1.5,1.5-3.2,2.3-4.8c1.7-3.5,3.1-7.1,3.2-11c0-1.2,0.4-2.6,1.5-3.1c0.4-0.2,0.9-0.2,1.2-0.5
				c0.6-0.4,0.6-1.2,0.7-2c0.1-1.8,0.6-3.4,0.8-5.2c0.2-1.4,0.1-2.8,0.4-4.2c0.4-1.5,1-0.7,1.7-1.3c0.2-0.2,0.3-0.5,0.3-0.8
				c0.2-2.6,1.1-5.1,2.6-7.4c0.4-0.6,1.2-1.2,1.8-0.8c0.4,0.2,0.4,0.7,0.5,1.1c0,0.1,0,0.2,0,0.3c0.2,1.2,0.3,2.5,0.5,3.7
				c0,0.3,0.1,0.7,0.1,1c0.1-0.1,0.2-0.1,0.3-0.1c0.5-0.1,1,0.2,1.3,0.6c0,0,0,0,0,0.1c0.1,0.2,0.2,0.4,0.3,0.7
				c0.1,0.2,0.1,0.5,0.1,0.7c0,3.2,1.9,6.5,2.6,9.6c0.1,0.2,0.1,0.5,0.4,0.6s0.6,0,0.9,0c0.1,0,0.2,0,0.3,0.1
				c0.4,0.2,0.7,0.7,0.8,1.2v0.1c1.1,3.6,2,7.2,3.1,10.8c0.6,2,1.2,3.6,2,5.5c0.7,1.6,1.5,3.2,2.2,4.8c0.5,1.1,1.4,2,1.8,3
				C44.2,50.4,36.6,50.9,34.1,51.2z"/>
			<path class="st2" d="M34.1,51.2c-0.2,0-0.4,0.1-0.6,0.1c-7-0.1-14.1-0.4-20.7-2.6c-0.8-0.3-1.7-0.6-2.2-1.3
				c-1.4-1.7,1.4-5.5,2.2-7.2c1.7-3.5,3.1-7.1,3.2-11c0-1.2,0.4-2.6,1.5-3.1c0.4-0.2,0.9-0.2,1.2-0.5c0.6-0.4,0.6-1.2,0.7-2
				c0.1-1.8,0.6-3.4,0.8-5.2c0.2-1.4,0.1-2.8,0.4-4.2c0.4-1.5,1-0.7,1.7-1.3c0.2-0.2,0.3-0.5,0.3-0.8c0.2-2.6,1.1-5.1,2.6-7.4
				c0.2-0.2,0.4-0.5,0.6-0.7c0.2,1.2,0.3,2.5,0.5,3.7c0,0.3,0.1,0.7,0.1,1c0.1-0.1,0.2-0.1,0.3-0.1c0.5-0.1,1,0.2,1.3,0.6
				c0,0,0,0,0,0.1c0.1,0.2,0.2,0.4,0.3,0.7c0.1,0.2,0.1,0.5,0.1,0.7c0,3.2,1.9,6.5,2.6,9.6c0.1,0.2,0.1,0.5,0.4,0.6s0.6,0,0.9,0
				c0.1,0,0.2,0,0.3,0.1c0.4,0.2,0.7,0.7,0.8,1.2v0.1c1.1,3.6,2,7.2,3.1,10.8c0.6,2,1.2,3.6,2,5.5c0.7,1.6,1.5,3.2,2.2,4.8
				c0.5,1.1,1.4,2,1.8,3C44.2,50.4,36.6,50.9,34.1,51.2z"/>
			<path class="st1" d="M47.1,56L46,53.4c-0.5-1.2-1.8-1.8-3-1.5c-11.8,3.3-24.2,3.3-35.9,0c-0.3-0.1-0.7-0.1-1-0.1
				c-0.9,0.1-1.7,0.7-2,1.6L3,55.9c-0.6,1.4,0.1,3,1.6,3.5c12.1,4.1,29,4.2,41,0c0.2-0.1,0.4-0.2,0.6-0.3
				C47.1,58.5,47.6,57.2,47.1,56z"/>
			<path class="st2" d="M47.1,56L46,53.4c-0.5-1.2-1.8-1.8-3-1.5c-11.8,3.3-24.2,3.3-35.9,0c-0.3-0.1-0.7-0.1-1-0.1l-1,2.4
				c-0.6,1.4,0.1,3,1.6,3.5c11.4,3.8,27.6,4.8,39.5,1.4C47.1,58.5,47.6,57.2,47.1,56z"/>
		</g>
	</g>
	<g>
		<polygon class="st0" points="24.9,28.1 24.9,28.1 24.9,28.1 17.1,30.9 18.3,41.2 24.9,44.9 24.9,44.9 24.9,44.9 31.6,41.2 
			32.9,30.8 		"/>
		<path class="st3" d="M24.9,28.7L24.9,28.7L24.9,28.7L24.9,28.7L24.9,28.7l-5.5,12.2h2l1.1-2.7h2.3l0,0h2.6l1.2,2.8h2L24.9,28.7z
			 M24.9,32.6l1.8,3.9H25h-0.1h-1.6L24.9,32.6z"/>
	</g>
</g>
</svg>
