<?xml version="1.0" encoding="utf-8"?>
<!-- Generator: Adobe Illustrator 22.0.0, SVG Export Plug-In . SVG Version: 6.00 Build 0)  -->
<svg version="1.1" id="Layer_1" xmlns="http://www.w3.org/2000/svg" xmlns:xlink="http://www.w3.org/1999/xlink" x="0px" y="0px"
	 viewBox="0 0 335 65" style="enable-background:new 0 0 335 65;" xml:space="preserve">
<style type="text/css">
	.st0{fill:#DD1B16;}
	.st1{fill:#FBC02D;}
	.st2{fill:#FFEB3B;}
	.st3{fill:#FFFFFF;}
</style>
<g>
	<g>
		<g>
			<g>
				<path class="st0" d="M170.5,50.6c-5.9-13.6-12-28-18.1-43.4c-1.9,4.8-3.8,9.4-5.7,14c-4.4,10.7-8.8,20.9-13,30.7
					c12.2,3.8,25.2,3.8,37.4,0C170.9,51.5,170.7,51,170.5,50.6z"/>
				<path class="st1" d="M161.5,51.1c-0.2,0-0.4,0.1-0.6,0.1c-3.2,0.4-6.5,0.6-9.7,0.5c-2.9-0.1-18.1-0.4-17.3-4.5
					c0.3-1.4,1.6-2.4,2.3-3.6c0.9-1.5,1.5-3.2,2.3-4.8c1.7-3.5,3.1-7.1,3.2-11c0-1.2,0.4-2.6,1.5-3.1c0.4-0.2,0.9-0.2,1.2-0.5
					c0.6-0.4,0.6-1.2,0.7-2c0.1-1.8,0.6-3.4,0.8-5.2c0.2-1.4,0.1-2.8,0.4-4.2c0.4-1.5,1-0.7,1.7-1.3c0.2-0.2,0.3-0.5,0.3-0.8
					c0.2-2.6,1.1-5.1,2.6-7.4c0.4-0.6,1.2-1.2,1.8-0.8c0.4,0.2,0.4,0.7,0.5,1.1c0,0.1,0,0.2,0,0.3c0.2,1.2,0.3,2.5,0.5,3.7
					c0,0.3,0.1,0.7,0.1,1c0.1-0.1,0.2-0.1,0.3-0.1c0.5-0.1,1,0.2,1.3,0.6c0,0,0,0,0,0.1c0.1,0.2,0.2,0.4,0.3,0.7
					c0.1,0.2,0.1,0.5,0.1,0.7c0,3.2,1.9,6.5,2.6,9.6c0.1,0.2,0.1,0.5,0.4,0.6c0.3,0.1,0.6,0,0.9,0c0.1,0,0.2,0,0.3,0.1
					c0.4,0.2,0.7,0.7,0.8,1.2v0.1c1.1,3.6,2,7.2,3.1,10.8c0.6,2,1.2,3.6,2,5.5c0.7,1.6,1.5,3.2,2.2,4.8c0.5,1.1,1.4,2,1.8,3
					C171.7,50.3,164,50.8,161.5,51.1z"/>
				<path class="st2" d="M161.5,51.1c-0.2,0-0.4,0.1-0.6,0.1c-7-0.1-14.1-0.4-20.7-2.6c-0.8-0.3-1.7-0.6-2.2-1.3
					c-1.4-1.7,1.4-5.5,2.2-7.2c1.7-3.5,3.1-7.1,3.2-11c0-1.2,0.4-2.6,1.5-3.1c0.4-0.2,0.9-0.2,1.2-0.5c0.6-0.4,0.6-1.2,0.7-2
					c0.1-1.8,0.6-3.4,0.8-5.2c0.2-1.4,0.1-2.8,0.4-4.2c0.4-1.5,1-0.7,1.7-1.3c0.2-0.2,0.3-0.5,0.3-0.8c0.2-2.6,1.1-5.1,2.6-7.4
					c0.2-0.2,0.4-0.5,0.6-0.7c0.2,1.2,0.3,2.5,0.5,3.7c0,0.3,0.1,0.7,0.1,1c0.1-0.1,0.2-0.1,0.3-0.1c0.5-0.1,1,0.2,1.3,0.6
					c0,0,0,0,0,0.1c0.1,0.2,0.2,0.4,0.3,0.7c0.1,0.2,0.1,0.5,0.1,0.7c0,3.2,1.9,6.5,2.6,9.6c0.1,0.2,0.1,0.5,0.4,0.6
					c0.3,0.1,0.6,0,0.9,0c0.1,0,0.2,0,0.3,0.1c0.4,0.2,0.7,0.7,0.8,1.2v0.1c1.1,3.6,2,7.2,3.1,10.8c0.6,2,1.2,3.6,2,5.5
					c0.7,1.6,1.5,3.2,2.2,4.8c0.5,1.1,1.4,2,1.8,3C171.7,50.3,164,50.8,161.5,51.1z"/>
				<path class="st1" d="M174.5,55.9l-1.1-2.6c-0.5-1.2-1.8-1.8-3-1.5c-11.8,3.3-24.2,3.3-35.9,0c-0.3-0.1-0.7-0.1-1-0.1
					c-0.9,0.1-1.7,0.7-2,1.6l-1.1,2.5c-0.6,1.4,0.1,3,1.6,3.5c12.1,4.1,29,4.2,41,0c0.2-0.1,0.4-0.2,0.6-0.3
					C174.6,58.4,175,57.1,174.5,55.9z"/>
				<path class="st2" d="M174.5,55.9l-1.1-2.6c-0.5-1.2-1.8-1.8-3-1.5c-11.8,3.3-24.2,3.3-35.9,0c-0.3-0.1-0.7-0.1-1-0.1l-1,2.4
					c-0.6,1.4,0.1,3,1.6,3.5c11.4,3.8,27.6,4.8,39.5,1.4C174.6,58.4,175,57.1,174.5,55.9z"/>
			</g>
		</g>
		<g>
			<polygon class="st0" points="152.3,28 152.3,28 152.3,28 144.5,30.8 145.7,41.1 152.3,44.8 152.3,44.8 152.3,44.8 159.1,41.1 
				160.4,30.7 			"/>
			<path class="st3" d="M152.3,28.6L152.3,28.6L152.3,28.6L152.3,28.6L152.3,28.6l-5.5,12.2h2l1.1-2.7h2.3l0,0h2.6l1.2,2.8h2
				L152.3,28.6z M152.3,32.5l1.8,3.9h-1.8h-0.1h-1.6L152.3,32.5z"/>
		</g>
	</g>
	<g>
		<path class="st3" d="M1.9,52.7V33.3V14h14.6c1.1,0,2.3,0.2,3.3,0.4s2.1,0.6,3,1.2s1.8,1.2,2.5,1.9c0.8,0.7,1.4,1.5,1.9,2.4
			c0.3,0.5,0.6,1,0.8,1.6c0.3,0.5,0.4,1,0.6,1.6s0.3,1.1,0.4,1.7s0.1,1.2,0.1,1.8c0,1.1-0.2,2.2-0.4,3.3c-0.3,1-0.6,2.1-1.2,3
			c-0.5,0.9-1.2,1.8-1.9,2.5c-0.7,0.7-1.5,1.4-2.4,1.9l-1.5,0.8c-0.5,0.3-1.1,0.4-1.7,0.6c-0.6,0.2-1.1,0.3-1.7,0.4
			c-0.6,0.1-1.2,0.1-1.8,0.1h-6.3v13.2C6.1,52.7,3.3,52.7,1.9,52.7z M16.5,31c0.6,0,1.1-0.1,1.7-0.3c0.5-0.2,1-0.5,1.4-1
			s0.8-0.9,0.9-1.4c0.2-0.5,0.3-1.1,0.3-1.7s-0.1-1.2-0.3-1.7c-0.2-0.5-0.5-1-0.9-1.4s-0.9-0.8-1.4-0.9c-0.5-0.2-1.1-0.3-1.7-0.3
			h-6.3V31h2.9h3.2C16.3,31,16.5,31,16.5,31z"/>
		<path class="st3" d="M36.5,14h8.7v38.7h-8.7V38.2V14z"/>
		<path class="st3" d="M52.7,52.7v-5.5v-1.9l21-23.4H53.5v-7.8h30.7v7.4C73.8,33.2,66.8,41,63.3,44.9h21v7.8H52.7z"/>
		<path class="st3" d="M90.3,52.7v-5.5v-1.9l21-23.4H91.2v-7.8h30.7v7.4C111.5,33.2,104.5,41,101,44.9h21v7.8H90.3z"/>
		<path class="st3" d="M194.3,53.4c-0.6-0.1-1.1-0.2-1.6-0.3s-1.1-0.2-1.6-0.4c-0.5-0.1-1-0.3-1.5-0.4c-0.9-0.3-1.7-0.6-2.4-1
			c-0.8-0.4-1.5-0.7-2.1-1.1l-1.6-1l-1-0.7l-1.2-1c0.6-0.7,1.2-1.6,2.1-2.6l2.9-3.7l1.2,1c0.2,0.2,0.5,0.4,1,0.6l1.9,1.1
			c0.8,0.5,1.7,0.8,2.6,1c0.9,0.3,1.8,0.4,2.9,0.4c0.4,0,0.7,0,1.1-0.1l1.1-0.2c0.3-0.1,0.6-0.2,1-0.3l1-0.5
			c0.3-0.2,0.5-0.4,0.7-0.5c0.2-0.2,0.3-0.4,0.5-0.6s0.3-0.5,0.3-0.8c0.1-0.3,0.1-0.5,0.1-0.8c-0.1-0.3-0.1-0.6-0.2-0.9
			c-0.1-0.3-0.3-0.5-0.5-0.7l-0.6-0.5c-0.2-0.2-0.4-0.3-0.6-0.3l-0.6-0.3l-0.9-0.3l-2-0.6l-3.5-1.2c-0.6-0.2-1.2-0.4-1.8-0.7
			c-0.5-0.2-1.1-0.4-1.6-0.7c-0.9-0.5-1.7-1-2.5-1.6c-0.7-0.6-1.4-1.2-1.9-2.1c-0.6-0.8-1-1.6-1.4-2.5c-0.3-0.9-0.5-1.8-0.6-2.7
			c-0.1-1-0.1-1.9,0.1-2.9c0.2-0.9,0.4-1.8,0.8-2.7c0.4-0.9,0.9-1.7,1.5-2.5s1.4-1.5,2.2-2.2c0.3-0.3,0.8-0.6,1.2-0.9l1.8-1
			c0.7-0.4,1.5-0.6,2.4-0.8s1.8-0.3,2.8-0.3c0.9,0,1.8,0.1,2.8,0.3s1.9,0.4,2.8,0.8s1.9,0.8,2.8,1.3l2.9,1.8l1.2,0.8l-1.9,2.8
			c-0.8,1.1-1.6,2.4-2.6,3.9l-1.3-0.9l-1.1-0.7l-1.7-0.9c-0.6-0.3-1.3-0.6-2-0.8c-0.6-0.2-1.3-0.3-2-0.3c-0.3,0-0.6,0-0.9,0.1
			l-0.8,0.2c-0.3,0.1-0.5,0.2-0.7,0.3c-0.3,0.1-0.5,0.3-0.7,0.4c-0.3,0.3-0.5,0.5-0.8,0.8c-0.2,0.2-0.4,0.5-0.5,0.8
			s-0.2,0.5-0.3,0.8c-0.1,0.3-0.1,0.6-0.1,0.9c0.1,0.3,0.1,0.5,0.2,0.7c0.1,0.3,0.3,0.5,0.4,0.8c0.2,0.2,0.4,0.4,0.6,0.6
			s0.5,0.4,0.8,0.5l1.2,0.6l1.5,0.5l1.5,0.5l1.5,0.5c0.4,0.2,0.9,0.3,1.2,0.4s0.8,0.2,1.1,0.4l1,0.4l0.9,0.4c1,0.4,1.9,1,2.6,1.7
			c0.8,0.6,1.5,1.4,2.1,2.2c0.6,0.8,1,1.7,1.4,2.6c0.4,0.9,0.5,1.8,0.5,2.9v0.6c0,0.9-0.1,1.8-0.3,2.6c-0.2,0.9-0.5,1.7-1,2.5
			c-0.5,0.9-1.1,1.7-1.8,2.4c-0.7,0.7-1.5,1.4-2.4,1.9c-0.6,0.4-1.2,0.6-1.9,0.9c-0.6,0.3-1.3,0.5-2,0.7s-1.4,0.3-2.1,0.4
			c-0.7,0.1-1.5,0.1-2.2,0.1C195.4,53.4,194.9,53.4,194.3,53.4z"/>
		<path class="st3" d="M229,52.7V38.1l-15.7-20.3c0.7-0.6,1.6-1.3,2.7-2.1l3.8-3c6.7,8.6,11.1,14.3,13.4,17.1l13.3-17.1
			c0.7,0.6,1.6,1.3,2.8,2.1c1.1,0.8,2.3,1.8,3.8,3l-15.7,20.3v14.6H229z"/>
		<path class="st3" d="M282.6,52.7l-16.4-23.9v23.9H258V33.3V14h7.5l16.2,23.8V14h8.1v38.7H282.6z"/>
		<path class="st3" d="M314.3,53.3c-0.9-0.1-1.8-0.3-2.8-0.5c-0.9-0.3-1.8-0.6-2.6-1c-0.8-0.4-1.6-0.8-2.4-1.3
			c-1.5-0.9-2.7-1.9-3.8-3.1c-1.1-1.2-2.2-2.5-3.1-4.1c-0.9-1.5-1.5-3-1.9-4.7s-0.6-3.4-0.6-5.2c0-1.8,0.2-3.5,0.6-5.2
			s1.1-3.2,1.9-4.7c0.9-1.5,1.9-2.9,3.1-4.1c1.1-1.2,2.4-2.2,3.8-3.1c0.8-0.5,1.6-0.9,2.4-1.3s1.7-0.6,2.6-0.9s1.8-0.4,2.8-0.6
			c0.9-0.2,1.9-0.2,2.8-0.2c1.4,0,2.6,0.1,3.9,0.4c1.2,0.2,2.5,0.6,3.7,1.1s2.4,1.1,3.4,1.8c1.1,0.7,2.1,1.6,3,2.5l1,1l-4.9,5.9
			l-1.2-1.1c-0.7-0.6-1.4-1.1-2.1-1.6c-0.7-0.4-1.4-0.7-2.1-0.9c-0.7-0.3-1.5-0.4-2.3-0.5s-1.6-0.2-2.5-0.2c-1.7,0-3.2,0.3-4.7,0.9
			c-1.4,0.5-2.7,1.4-3.8,2.5c-1.1,1.1-2,2.4-2.6,3.8s-0.9,3-0.9,4.6c0,1.7,0.3,3.2,0.9,4.6c0.6,1.4,1.5,2.6,2.6,3.8
			c1.1,1.1,2.4,2,3.8,2.5c1.5,0.6,3,0.9,4.7,0.9c0.9,0,1.8-0.1,2.6-0.2c0.8-0.2,1.7-0.4,2.5-0.6c0.8-0.3,1.6-0.6,2.3-1.1
			c0.7-0.5,1.4-1,2.1-1.7l0.5-0.6l0.8-0.8l5.2,5.6l-1,1.1c-0.9,1.1-2,2.1-3.1,2.9c-1.1,0.8-2.4,1.5-3.7,2.1c-1.4,0.6-2.6,1-4,1.3
			s-2.8,0.5-4.2,0.4C316.2,53.5,315.2,53.4,314.3,53.3z"/>
	</g>
</g>
</svg>
